<svg width="127" height="60" viewBox="0 0 127 60" fill="none" xmlns="http://www.w3.org/2000/svg">
<rect width="127" height="60" fill="white"/>
<path d="M53.6375 29.62H61.5775V24.74H53.6375V29.62ZM65.9775 35.44V37.58H49.2975V35.44H56.2975V31.7H51.0575V22.66H64.1575V31.7H58.9375V35.44H65.9775ZM82.4559 29.92H69.7959V22.28H82.2559V24.38H72.4959V27.82H82.4559V29.92ZM84.3759 33.86H77.2959V39.7H74.6559V33.86H67.6759V31.72H84.3759V33.86ZM106.566 21.28V39.7H104.066V30.5H102.566V38.88H100.106V33.54L98.6256 35.52C97.799 35.08 97.1123 34.5 96.5656 33.78C96.0323 33.06 95.599 32.24 95.2656 31.32C94.959 32.3867 94.5323 33.34 93.9856 34.18C93.439 35.02 92.7323 35.6933 91.8656 36.2L90.2856 34.2C90.9656 33.8 91.539 33.3067 92.0056 32.72C92.4723 32.12 92.8456 31.46 93.1256 30.74C93.4056 30.0067 93.6056 29.22 93.7256 28.38C93.8456 27.54 93.9056 26.68 93.9056 25.8V25.3H90.8856V23.16H99.2256V25.3H96.4656V25.8C96.4656 26.6 96.5256 27.3867 96.6456 28.16C96.779 28.9333 96.9856 29.66 97.2656 30.34C97.5456 31.0067 97.919 31.6133 98.3856 32.16C98.8523 32.6933 99.4256 33.14 100.106 33.5V21.58H102.566V28.34H104.066V21.28H106.566ZM120.784 31.98H118.324V21.64H120.784V25.78H122.224V21.3H124.724V32.56H122.224V27.9H120.784V31.98ZM116.904 31.48C116.144 31.1733 115.497 30.76 114.964 30.24C114.431 29.72 113.997 29.1267 113.664 28.46C113.331 29.2467 112.877 29.9533 112.304 30.58C111.731 31.2067 111.017 31.7 110.164 32.06L108.764 30.02C109.404 29.74 109.951 29.3933 110.404 28.98C110.857 28.5667 111.224 28.12 111.504 27.64C111.797 27.16 112.011 26.6533 112.144 26.12C112.277 25.5867 112.344 25.06 112.344 24.54V22.4H114.884V24.54C114.884 25.0333 114.944 25.5267 115.064 26.02C115.197 26.5 115.404 26.96 115.684 27.4C115.964 27.8267 116.317 28.22 116.744 28.58C117.184 28.94 117.704 29.24 118.304 29.48L116.904 31.48ZM118.484 37.74C119.671 37.74 120.577 37.62 121.204 37.38C121.844 37.14 122.164 36.7733 122.164 36.28C122.164 35.7867 121.844 35.42 121.204 35.18C120.577 34.94 119.671 34.82 118.484 34.82C117.271 34.82 116.344 34.94 115.704 35.18C115.077 35.42 114.764 35.7867 114.764 36.28C114.764 36.7733 115.077 37.14 115.704 37.38C116.344 37.62 117.271 37.74 118.484 37.74ZM118.484 32.84C119.444 32.84 120.311 32.92 121.084 33.08C121.871 33.24 122.537 33.4667 123.084 33.76C123.644 34.0533 124.071 34.4133 124.364 34.84C124.657 35.2667 124.804 35.7467 124.804 36.28C124.804 36.8267 124.657 37.3133 124.364 37.74C124.071 38.1667 123.644 38.5267 123.084 38.82C122.537 39.1133 121.871 39.34 121.084 39.5C120.311 39.66 119.444 39.74 118.484 39.74C117.511 39.74 116.631 39.66 115.844 39.5C115.071 39.34 114.404 39.1133 113.844 38.82C113.297 38.5267 112.871 38.1667 112.564 37.74C112.271 37.3133 112.124 36.8267 112.124 36.28C112.124 35.7467 112.271 35.2667 112.564 34.84C112.871 34.4133 113.297 34.0533 113.844 33.76C114.404 33.4667 115.071 33.24 115.844 33.08C116.631 32.92 117.511 32.84 118.484 32.84Z" fill="black"/>
<path d="M32 30L17 38.6603L17 21.3397L32 30Z" fill="#0993FF"/>
</svg>
